<svg
  xmlns="http://www.w3.org/2000/svg"
  width="5.4978in"
  height="1.00482in"
  viewBox="0 0 5086 930"
  shapeRendering="geometricPrecision"
  textRendering="geometricPrecision"
  imageRendering="optimizeQuality"
>
  <g>
    <path
      fill="#414041"
      fillRule="nonzero"
      d="M4687 930c-63,0 -121,-17 -173,-49 -52,-33 -93,-76 -124,-131-30,-55-46,-115-46,-182 0,-50 9,-97 27,-141 18,-44 42,-82 73,-116 31,-33 68,-59 109,-79 41,-19 86,-28 134,-28 61,0 108,11 142,34 33,23 60,53 78,90l0 -110 179 0 0 694 -175 0 0 -113c-18,39 -45,71 -79,95 -34,24 -83,36 -145,36zm29 -163c41,0 75,-9 104,-28 29,-18 51,-42 67,-72 16,-30 24,-63 24,-99 0,-36 -8,-70 -24,-100 -16,-30 -38,-55 -67,-73 -29,-19 -63,-28 -104,-28 -38,0 -71,9 -100,27 -29,18 -52,42 -68,73 -16,30 -24,63 -24,100 0,34 8,67 24,98 16,30 39,55 68,74 29,18 62,28 100,28z"
    />
    <path
      fill="#414041"
      fillRule="nonzero"
      d="M3617 912l0 -694 178 0 0 102c36,-78 107,-118 212,-118 50,0 94,12 135,35 40,23 71,56 94,99 23,43 35,93 35,152l0 424 -180 0 0 -380c0,-60 -14,-104 -42,-131 -27,-28 -63,-41 -108,-41 -38,0 -71,13 -100,41 -29,27 -44,71 -44,131l0 380 -180 0z"
    />
    <path
      fill="#414041"
      fillRule="nonzero"
      d="M3112 930c-64,0 -121,-17 -173,-49 -52,-33 -94,-76 -124,-131 -31,-55 -46,-115 -46,-182 0,-50 9,-97 26,-141 18,-44 43,-82 74,-116 31,-33 67,-59 109,-79 41,-19 86,-28 134,-28 60,0 107,11 141,34 34,23 60,53 79,90l0 -110 178 0 0 694 -174 0 0 -113c-19,39 -45,71 -80,95 -34,24 -82,36 -144,36zm29 -163c40,0 74,-9 103,-28 29,-18 52,-42 68,-72 16,-30 24,-63 24,-99 0,-36 -8,-70 -24,-100 -16,-30 -39,-55 -68,-73 -29,-19 -63,-28 -103,-28 -38,0 -72,9 -101,27 -29,18 -51,42 -67,73 -16,30 -24,63 -24,100 0,34 8,67 24,98 16,30 38,55 67,74 29,18 63,28 101,28z"
    />
    <path
      fill="#414041"
      fillRule="nonzero"
      d="M2336 912l-289 -694 213 0 139 397c13,35 22,72 30,110 7,-38 16,-75 29,-110l139 -397 209 0 -288 694 -182 0z"
    />
    <path
      fill="#414041"
      fillRule="nonzero"
      d="M1729 930c-71,0 -133,-17 -188,-50 -54,-33 -96,-77 -126,-131 -30,-55 -44,-116 -44,-182 0,-67 15,-128 46,-184 31,-55 74,-100 128,-132 53,-33 115,-50 184,-50 70,0 131,17 184,50 53,32 94,77 124,132 30,56 45,117 45,184 0,9 -1,20 -2,30 -1,11 -2,22 -4,34l-519 0c10,41 30,74 60,100 30,26 67,38 112,38 40,0 74,-8 103,-26 28,-18 51,-40 67,-67l140 105c-28,44 -69,80 -124,107 -55,28 -117,42 -186,42zm-2 -574c-43,0 -79,13 -110,39 -30,25 -50,59 -60,101l343 0c-10,-38 -30,-71 -60,-99 -31,-27 -69,-41 -113,-41z"
    />
    <polygon
      fill="#414041"
      fillRule="nonzero"
      points="1110,912 1110,0 1291,0 1291,912"
    />
    <polygon
      fill="#00A859"
      fillRule="nonzero"
      points="960,371 328,371 328,211 960,211"
    />
    <polygon
      fill="#00A859"
      fillRule="nonzero"
      points="783,649 151,649 151,489 783,489"
    />
    <polygon
      fill="#00A859"
      fillRule="nonzero"
      points="632,927 0,927 0,767 632,767"
    />
  </g>
</svg>
